<svg xmlns="http://www.w3.org/2000/svg" width="1072" height="1072" viewBox="-15 -188 1072 1072" version="1.1">
    <g transform="translate(-100,0)">
        <path d="M498 850c-114 0-228-39-320-116l0 0c173 140 428 130 588-31 134-134 164-332 89-495-10-29-5-50 12-68 21-20 61-23 84 0 3 3 12 15 15 24 71 180 33 393-112 539-99 98-228 147-356 147z m-409-274c-14 0-29-5-39-16-3-3-13-15-15-24-71-180-34-393 112-539 185-185 479-195 676-31l0 0c-173-140-428-130-589 31-134 134-163 333-89 495 11 29 6 50-12 68-11 11-27 17-44 16z"/>
        <animateTransform attributeName="transform" 
            begin="0s" dur=".5s" type="rotate" 
            from="0 512 344" to="360 512 344" 
            repeatCount="indefinite"/>
    </g>
</svg>