<svg  width="875" height="715" viewBox="0 -655 875 715" xmlns="http://www.w3.org/2000/svg" version="1.1">
    <g fill="#999">
        <path  d="M357-604q0-2 1-11t0-15-2-13-5-11-12-3h-178q-67 0-114 47t-47 114v392q0 67 47 114t114 47h178q8 0 13-5t5-13q0-2 1-11t0-15-2-13-5-11-12-3h-178q-37 0-63-27t-27-63v-392q0-37 27-64t63-26h174t6 0 7-2 4-3 4-5 1-8z m518 304q0-15-11-25l-303-304q-11-10-25-10t-25 10-11 25v161h-250q-14 0-25 11t-11 25v214q0 15 11 25t25 11h250v161q0 14 11 25t25 10 25-10l303-304q11-11 11-25z"/>
    </g>
</svg>